<svg width="22" height="22" viewBox="0 0 22 22" fill="none" xmlns="http://www.w3.org/2000/svg">
<path fill-rule="evenodd" clip-rule="evenodd" d="M11.0001 0.285645C5.08272 0.285645 0.285767 5.08259 0.285767 10.9999C0.285767 16.9173 5.08272 21.7142 11.0001 21.7142C16.9174 21.7142 21.7143 16.9173 21.7143 10.9999C21.7143 8.15832 20.5855 5.4331 18.5762 3.42379C16.5669 1.41447 13.8417 0.285645 11.0001 0.285645ZM15.8706 8.95082L10.5134 14.308C10.1652 14.6541 9.60276 14.6541 9.25452 14.308L6.12952 11.183C5.82615 10.8287 5.84654 10.3007 6.17634 9.97086C6.50613 9.64106 7.0342 9.62067 7.38845 9.92404L9.88398 12.4151L14.6117 7.6919C14.9659 7.38852 15.494 7.40892 15.8238 7.73871C16.1536 8.06851 16.174 8.59657 15.8706 8.95082V8.95082Z" fill="#007AFF"/>
</svg>
