<svg width="34" height="34" viewBox="0 0 34 34" fill="none" xmlns="http://www.w3.org/2000/svg">
<path fill-rule="evenodd" clip-rule="evenodd" d="M25.0952 7.38694H19.5298C19.5298 5.98979 18.3971 4.85718 17 4.85718C15.6028 4.85718 14.4702 5.98979 14.4702 7.38694H8.90476C8.06647 7.38694 7.3869 8.06651 7.3869 8.9048C7.3869 9.74309 8.06647 10.4227 8.90476 10.4227L9.78512 26.7497C9.85777 28.0933 10.9694 29.1449 12.3149 29.1429H21.6851C23.0306 29.1449 24.1422 28.0933 24.2149 26.7497L25.0952 10.4227C25.9335 10.4227 26.6131 9.74309 26.6131 8.9048C26.6131 8.06651 25.9335 7.38694 25.0952 7.38694ZM15.4821 24.0834C15.4821 24.6422 15.0291 25.0953 14.4702 25.0953C13.9114 25.0953 13.4583 24.6422 13.4583 24.0834V13.9643C13.4583 13.4055 13.9114 12.9524 14.4702 12.9524C15.0291 12.9524 15.4821 13.4055 15.4821 13.9643V24.0834ZM20.5417 24.0834C20.5417 24.6422 20.0886 25.0953 19.5298 25.0953C18.9709 25.0953 18.5179 24.6422 18.5179 24.0834V13.9643C18.5179 13.4055 18.9709 12.9524 19.5298 12.9524C20.0886 12.9524 20.5417 13.4055 20.5417 13.9643V24.0834Z" fill="white"/>
</svg>
