<svg width="28" height="28" viewBox="0 0 28 28" fill="none" xmlns="http://www.w3.org/2000/svg">
<path fill-rule="evenodd" clip-rule="evenodd" d="M18.4898 4H9.5102C8.38309 4 7.46939 4.9137 7.46939 6.04082V22.3673C7.46817 22.863 7.7659 23.3105 8.22354 23.5009C8.68119 23.6913 9.20847 23.587 9.55918 23.2367L13.1347 19.6612C13.6128 19.1837 14.3872 19.1837 14.8653 19.6612L18.4408 23.2367C18.7915 23.587 19.3188 23.6913 19.7765 23.5009C20.2341 23.3105 20.5318 22.863 20.5306 22.3673V6.04082C20.5306 4.9137 19.6169 4 18.4898 4ZM16.0408 12.5714H14.8163V13.7959C14.8163 14.2468 14.4508 14.6122 14 14.6122C13.5492 14.6122 13.1837 14.2468 13.1837 13.7959V12.5714H11.9592C11.5083 12.5714 11.1429 12.2059 11.1429 11.7551C11.1429 11.3043 11.5083 10.9388 11.9592 10.9388H13.1837V9.71429C13.1837 9.26344 13.5492 8.89796 14 8.89796C14.4508 8.89796 14.8163 9.26344 14.8163 9.71429V10.9388H16.0408C16.4917 10.9388 16.8571 11.3043 16.8571 11.7551C16.8571 12.2059 16.4917 12.5714 16.0408 12.5714Z" fill="#D3D4ED"/>
</svg>
