<svg width="25" height="30" viewBox="0 0 25 30" fill="none" xmlns="http://www.w3.org/2000/svg">
<path fill-rule="evenodd" clip-rule="evenodd" d="M24.4107 11.238L13.9702 1.21423C13.2789 0.549033 12.1854 0.549033 11.494 1.21423L1.05357 11.238C0.530156 11.7425 0.364805 12.5139 0.635464 13.1886C0.906124 13.8633 1.55876 14.3066 2.28571 14.3095H3.20833V26.3095C3.20833 27.0988 3.52189 27.8558 4.08004 28.414C4.63818 28.9721 5.39519 29.2857 6.18452 29.2857H19.2798C20.9235 29.2857 22.2559 27.9532 22.2559 26.3095V14.3095H23.1726C23.9006 14.309 24.5555 13.8666 24.8277 13.1914C25.0999 12.5161 24.9349 11.7433 24.4107 11.238ZM12.7321 21.5476C11.4172 21.5476 10.3512 20.4816 10.3512 19.1666C10.3512 17.8516 11.4172 16.7857 12.7321 16.7857C14.0471 16.7857 15.1131 17.8516 15.1131 19.1666C15.1131 20.4816 14.0471 21.5476 12.7321 21.5476Z" fill="#007AFF"/>
</svg>
