<svg width="28" height="28" viewBox="0 0 28 28" fill="none" xmlns="http://www.w3.org/2000/svg">
<path fill-rule="evenodd" clip-rule="evenodd" d="M21.9875 11.3666L14.6792 4.34996C14.1952 3.88432 13.4298 3.88432 12.9458 4.34996L5.6375 11.3666C5.27111 11.7198 5.15537 12.2598 5.34483 12.732C5.53429 13.2043 5.99114 13.5146 6.5 13.5166H7.14583V21.9166C7.14583 22.4692 7.36533 22.9991 7.75603 23.3898C8.14673 23.7805 8.67663 24 9.22917 24H18.3958C19.5464 24 20.4792 23.0672 20.4792 21.9166V13.5166H21.1208C21.6305 13.5163 22.0889 13.2066 22.2794 12.734C22.4699 12.2613 22.3544 11.7203 21.9875 11.3666ZM13.8125 18.5833C12.892 18.5833 12.1458 17.8371 12.1458 16.9166C12.1458 15.9962 12.892 15.25 13.8125 15.25C14.733 15.25 15.4792 15.9962 15.4792 16.9166C15.4792 17.8371 14.733 18.5833 13.8125 18.5833Z" fill="#D3D4ED"/>
</svg>
