<svg width="28" height="28" viewBox="0 0 28 28" fill="none" xmlns="http://www.w3.org/2000/svg">
<path fill-rule="evenodd" clip-rule="evenodd" d="M20.6 21.347H7.80816C6.77838 21.356 5.90324 20.5964 5.76735 19.5756L4.40816 9.35927C4.3419 8.84934 4.6013 8.35234 5.05752 8.11511C5.51374 7.87787 6.06958 7.95095 6.44898 8.29805L8.73469 10.4164C8.97869 10.6552 9.31131 10.7813 9.65229 10.7642C9.99327 10.7472 10.3116 10.5886 10.5306 10.3266L13.2653 7.10213C13.498 6.82432 13.8417 6.66382 14.2041 6.66382C14.5664 6.66382 14.9102 6.82432 15.1429 7.10213L17.8775 10.3266C18.0938 10.5831 18.4057 10.7396 18.7405 10.7596C19.0753 10.7797 19.4037 10.6615 19.649 10.4327L21.9347 8.2858C22.3141 7.93871 22.8699 7.86563 23.3261 8.10286C23.7824 8.3401 24.0418 8.8371 23.9755 9.34703L22.6163 19.5511C22.4929 20.5724 21.6287 21.3421 20.6 21.347Z" fill="#D3D4ED"/>
</svg>
