<svg width="28" height="28" viewBox="0 0 28 28" fill="none" xmlns="http://www.w3.org/2000/svg">
<path fill-rule="evenodd" clip-rule="evenodd" d="M20.4857 16.7019L21.5959 18.4447C21.8361 18.8223 21.8511 19.3009 21.6352 19.6928C21.4192 20.0847 21.0067 20.3277 20.5592 20.3264H7.06123C6.61447 20.3262 6.20328 20.0827 5.98833 19.691C5.77339 19.2993 5.78881 18.8217 6.02857 18.4447L7.12653 16.7141C7.2363 16.541 7.30086 16.3431 7.31429 16.1386L7.72245 10.1223C7.94113 6.76786 10.8235 4.21712 14.1796 4.408C17.2952 4.64391 19.7508 7.15716 19.9143 10.2774L20.298 16.1264C20.3114 16.3309 20.3759 16.5288 20.4857 16.7019ZM15.9247 21.9629C15.7811 21.7109 15.5145 21.554 15.2245 21.5509H12.4C12.11 21.554 11.8434 21.7109 11.6998 21.9629C11.5561 22.2149 11.557 22.5242 11.702 22.7753C12.1422 23.5227 12.9449 23.9815 13.8122 23.9815C14.6796 23.9815 15.4823 23.5227 15.9225 22.7753C16.0675 22.5242 16.0684 22.2149 15.9247 21.9629Z" fill="#D3D4ED"/>
</svg>
