<svg width="28" height="28" viewBox="0 0 28 28" fill="none" xmlns="http://www.w3.org/2000/svg">
<path fill-rule="evenodd" clip-rule="evenodd" d="M20.751 6.73475L19.0163 5.00414C18.2194 4.20744 16.9276 4.20744 16.1306 5.00414L8.69389 12.4531C8.46264 12.6811 8.28913 12.9609 8.18777 13.2694L6.69389 18.0409C6.60288 18.3305 6.68007 18.6466 6.89429 18.8617C7.1085 19.0768 7.42435 19.1552 7.7143 19.0654L12.4816 17.5674C12.7897 17.4672 13.0696 17.2951 13.298 17.0654L20.751 9.61638C21.545 8.81992 21.545 7.53122 20.751 6.73475ZM18.151 7.60006L11.2123 14.5388C10.8865 14.7957 10.4198 14.7674 10.1275 14.473C9.83523 14.1786 9.81022 13.7118 10.0694 13.3878L17.0082 6.44904C17.2145 6.2427 17.5153 6.16211 17.7971 6.23764C18.079 6.31316 18.2992 6.53333 18.3747 6.81519C18.4502 7.09705 18.3696 7.3978 18.1633 7.60414L18.151 7.60006ZM7.67348 24.0001H20.3265C20.8901 24.0001 21.347 23.5432 21.347 22.9797C21.347 22.4161 20.8901 21.9592 20.3265 21.9592H7.67348C7.10993 21.9592 6.65308 22.4161 6.65308 22.9797C6.65308 23.5432 7.10993 24.0001 7.67348 24.0001Z" fill="black"/>
</svg>
