<svg width="28" height="28" viewBox="0 0 28 28" fill="none" xmlns="http://www.w3.org/2000/svg">
<path fill-rule="evenodd" clip-rule="evenodd" d="M7.27054 5.21278C7.04534 5.07767 6.78174 5 6.5 5C5.67157 5 5 5.67157 5 6.5V11C5 11 5.04611 11.6046 5.21446 11.8418C5.38282 12.079 6.0035 12.4138 6.0035 12.4138L15.5 14L6.0035 15.5863C6.0035 15.5863 5.393 15.8534 5.21446 16.1049C5.03592 16.3565 5 17 5 17V21.5C5 22.3284 5.67157 23 6.5 23C6.78174 23 7.04534 22.9223 7.27056 22.7872L22.5432 14.6908L22.5435 14.6904C22.8118 14.5762 23 14.3101 23 14C23 13.6899 22.8118 13.4238 22.5435 13.3096L22.5432 13.3092L7.27054 5.21278Z" fill="black"/>
</svg>
