<svg width="28" height="28" viewBox="0 0 28 28" fill="none" xmlns="http://www.w3.org/2000/svg">
<path fill-rule="evenodd" clip-rule="evenodd" d="M22.584 16.2481L22 15.9121C21.7161 15.7518 21.5579 15.4353 21.6 15.1121C21.7067 14.3746 21.7067 13.6256 21.6 12.8881C21.5602 12.5358 21.7481 12.1969 22.068 12.0441L22.572 11.7521C22.9067 11.5598 23.0565 11.156 22.928 10.7921C22.7545 10.2986 22.539 9.82082 22.284 9.36407C22.224 9.25207 22.156 9.13607 22.088 9.02407C21.8269 8.58177 21.5299 8.16169 21.2 7.76807C20.9219 7.45956 20.4583 7.40482 20.116 7.64007L19.6 7.93607C19.3192 8.09776 18.9685 8.07407 18.712 7.87607C18.1319 7.41368 17.4879 7.03777 16.8 6.76007C16.5028 6.6361 16.3089 6.34606 16.308 6.02407V5.34807C16.3144 4.95686 16.0369 4.61844 15.652 4.54807C14.4986 4.3401 13.3174 4.3401 12.164 4.54807C11.7791 4.61844 11.5016 4.95686 11.508 5.34807V6.02407C11.5044 6.34998 11.3034 6.64112 11 6.76007C10.3079 7.03673 9.65978 7.41268 9.076 7.87607C8.81947 8.07407 8.46883 8.09776 8.188 7.93607L7.6 7.60007C7.2655 7.40489 6.83923 7.47734 6.588 7.77207C6.25117 8.16495 5.94747 8.58505 5.68 9.02807C5.612 9.14007 5.544 9.25607 5.484 9.36807C5.23015 9.82624 5.01603 10.3053 4.844 10.8001C4.71994 11.1617 4.8691 11.5606 5.2 11.7521L5.78 12.0881C6.06387 12.2483 6.22211 12.5648 6.18 12.8881C6.07333 13.6256 6.07333 14.3746 6.18 15.1121C6.22211 15.4353 6.06387 15.7518 5.78 15.9121L5.2 16.2481C4.8691 16.4396 4.71994 16.8384 4.844 17.2001C5.01753 17.6936 5.23298 18.1713 5.488 18.6281C5.548 18.7401 5.616 18.8561 5.684 18.9681C5.95147 19.4111 6.25517 19.8312 6.592 20.2241C6.84165 20.518 7.2655 20.592 7.6 20.4001L8.184 20.0601C8.46483 19.8984 8.81547 19.9221 9.072 20.1201C9.65676 20.5852 10.3063 20.9625 11 21.2401C11.2972 21.364 11.4911 21.6541 11.492 21.9761V22.6521C11.4856 23.0433 11.7631 23.3817 12.148 23.4521C13.3014 23.66 14.4826 23.66 15.636 23.4521C16.0209 23.3817 16.2984 23.0433 16.292 22.6521V21.9761C16.2956 21.6502 16.4965 21.359 16.8 21.2401C17.4921 20.9634 18.1402 20.5875 18.724 20.1241C18.978 19.9313 19.3221 19.9077 19.6 20.0641L20.184 20.4041C20.5194 20.6015 20.9483 20.5289 21.2 20.2321C21.5368 19.8392 21.8405 19.4191 22.108 18.9761C22.176 18.8641 22.244 18.7481 22.304 18.6361C22.5567 18.1765 22.7695 17.696 22.94 17.2001C23.0641 16.8384 22.9149 16.4396 22.584 16.2481ZM13.892 17.6001C11.9038 17.6001 10.292 15.9883 10.292 14.0001C10.292 12.0118 11.9038 10.4001 13.892 10.4001C15.8802 10.4001 17.492 12.0118 17.492 14.0001C17.492 14.9548 17.1127 15.8705 16.4376 16.5457C15.7625 17.2208 14.8468 17.6001 13.892 17.6001Z" fill="#D3D4ED"/>
</svg>
