<svg width="28" height="28" viewBox="0 0 28 28" fill="none" xmlns="http://www.w3.org/2000/svg">
<path fill-rule="evenodd" clip-rule="evenodd" d="M21.2889 9.37778C21.1333 9.22222 20.9111 9.11111 20.6667 9.11111H18.4444V8.71111C18.4444 6.11111 16.3111 4 13.8222 4H13.7333C11.2444 4 9.11111 6.11111 9.11111 8.71111V9.11111H6.88889C6.4 9.11111 6 9.53333 6 10.0444V23.1111C6 23.6 6.4 24 6.88889 24H20.6667C21.1556 24 21.5556 23.6 21.5556 23.1111V10.0222C21.5556 9.8 21.4667 9.55556 21.2889 9.37778ZM10.8889 8.71111C10.8889 7.08889 12.2222 5.77778 13.7333 5.77778H13.8222C15.3333 5.77778 16.6667 7.08889 16.6667 8.71111V9.11111H10.8889V8.71111ZM19.7778 22.2222H7.77778V10.8889H9.11111V12.4222C9.11111 12.9111 9.51111 13.3111 10 13.3111C10.4889 13.3111 10.8889 12.9111 10.8889 12.4222V10.8889H16.6667V12.4222C16.6667 12.9111 17.0667 13.3111 17.5556 13.3111C18.0444 13.3111 18.4444 12.9111 18.4444 12.4222V10.8889H19.7778V22.2222Z" fill="black"/>
</svg>
