<svg width="100" height="20" viewBox="0 0 100 20" fill="none" xmlns="http://www.w3.org/2000/svg">
<path fill-rule="evenodd" clip-rule="evenodd" d="M10.6894 3.53726L12.4441 7.24223L16.0372 7.62421C16.3985 7.67459 16.6971 7.93113 16.8014 8.28066C16.9056 8.63018 16.7963 9.0084 16.5217 9.24844L13.6646 11.6056L14.5497 15.5652C14.6193 15.9226 14.4743 16.2878 14.1785 16.5002C13.8827 16.7125 13.4903 16.7331 13.1739 16.5528L9.85712 14.5373L6.54346 16.5528C6.22709 16.7331 5.83468 16.7125 5.53888 16.5002C5.24307 16.2878 5.09807 15.9226 5.16768 15.5652L6.05278 11.6056L3.19253 9.24844C2.91776 9.00797 2.80878 8.62917 2.91376 8.27946C3.01875 7.92975 3.31833 7.67359 3.68011 7.62421L7.27327 7.24223L9.02793 3.53726C9.18675 3.22443 9.50784 3.02734 9.85868 3.02734C10.2095 3.02734 10.5306 3.22443 10.6894 3.53726Z" fill="#FF9500"/>
<path fill-rule="evenodd" clip-rule="evenodd" d="M30.6894 3.53726L32.4441 7.24223L36.0372 7.62421C36.3985 7.67459 36.6971 7.93113 36.8014 8.28066C36.9056 8.63018 36.7963 9.0084 36.5217 9.24844L33.6646 11.6056L34.5497 15.5652C34.6193 15.9226 34.4743 16.2878 34.1785 16.5002C33.8827 16.7125 33.4903 16.7331 33.1739 16.5528L29.8571 14.5373L26.5435 16.5528C26.2271 16.7331 25.8347 16.7125 25.5389 16.5002C25.2431 16.2878 25.0981 15.9226 25.1677 15.5652L26.0528 11.6056L23.1925 9.24844C22.9178 9.00797 22.8088 8.62917 22.9138 8.27946C23.0187 7.92975 23.3183 7.67359 23.6801 7.62421L27.2733 7.24223L29.0279 3.53726C29.1868 3.22443 29.5078 3.02734 29.8587 3.02734C30.2095 3.02734 30.5306 3.22443 30.6894 3.53726Z" fill="#FF9500"/>
<path fill-rule="evenodd" clip-rule="evenodd" d="M50.6895 3.53726L52.4442 7.24223L56.0374 7.62421C56.3986 7.67459 56.6972 7.93113 56.8015 8.28066C56.9058 8.63018 56.7965 9.0084 56.5218 9.24844L53.6647 11.6056L54.5498 15.5652C54.6194 15.9226 54.4744 16.2878 54.1786 16.5002C53.8828 16.7125 53.4904 16.7331 53.174 16.5528L49.8572 14.5373L46.5436 16.5528C46.2272 16.7331 45.8348 16.7125 45.539 16.5002C45.2432 16.2878 45.0982 15.9226 45.1678 15.5652L46.0529 11.6056L43.1927 9.24844C42.9179 9.00797 42.8089 8.62917 42.9139 8.27946C43.0189 7.92975 43.3185 7.67359 43.6802 7.62421L47.2734 7.24223L49.0281 3.53726C49.1869 3.22443 49.508 3.02734 49.8588 3.02734C50.2096 3.02734 50.5307 3.22443 50.6895 3.53726Z" fill="#FF9500"/>
<path fill-rule="evenodd" clip-rule="evenodd" d="M70.6895 3.53726L72.4442 7.24223L76.0374 7.62421C76.3986 7.67459 76.6972 7.93113 76.8015 8.28066C76.9058 8.63018 76.7965 9.0084 76.5218 9.24844L73.6647 11.6056L74.5498 15.5652C74.6194 15.9226 74.4744 16.2878 74.1786 16.5002C73.8828 16.7125 73.4904 16.7331 73.174 16.5528L69.8572 14.5373L66.5436 16.5528C66.2272 16.7331 65.8348 16.7125 65.539 16.5002C65.2432 16.2878 65.0982 15.9226 65.1678 15.5652L66.0529 11.6056L63.1927 9.24844C62.9179 9.00797 62.8089 8.62917 62.9139 8.27946C63.0189 7.92975 63.3185 7.67359 63.6802 7.62421L67.2734 7.24223L69.0281 3.53726C69.1869 3.22443 69.508 3.02734 69.8588 3.02734C70.2096 3.02734 70.5307 3.22443 70.6895 3.53726Z" fill="#FF9500"/>
<path fill-rule="evenodd" clip-rule="evenodd" d="M90.6895 3.53726L92.4442 7.24223L96.0374 7.62421C96.3986 7.67459 96.6972 7.93113 96.8015 8.28066C96.9058 8.63018 96.7965 9.0084 96.5218 9.24844L93.6647 11.6056L94.5498 15.5652C94.6194 15.9226 94.4744 16.2878 94.1786 16.5002C93.8828 16.7125 93.4904 16.7331 93.174 16.5528L89.8572 14.5373L86.5436 16.5528C86.2272 16.7331 85.8348 16.7125 85.539 16.5002C85.2432 16.2878 85.0982 15.9226 85.1678 15.5652L86.0529 11.6056L83.1927 9.24844C82.9179 9.00797 82.8089 8.62917 82.9139 8.27946C83.0189 7.92975 83.3185 7.67359 83.6802 7.62421L87.2734 7.24223L89.0281 3.53726C89.1869 3.22443 89.508 3.02734 89.8588 3.02734C90.2096 3.02734 90.5307 3.22443 90.6895 3.53726Z" fill="#FF9500"/>
</svg>
