<svg width="28" height="28" viewBox="0 0 28 28" fill="none" xmlns="http://www.w3.org/2000/svg">
<path fill-rule="evenodd" clip-rule="evenodd" d="M22.6047 4H15.0977C14.4805 3.9989 13.8881 4.24319 13.4512 4.67907L5.14419 12.9861C4.23632 13.8942 4.23632 15.3663 5.14419 16.2744L11.7256 22.8558C12.6337 23.7637 14.1058 23.7637 15.014 22.8558L23.3209 14.5488C23.7568 14.1119 24.0011 13.5195 24 12.9023V5.39535C24 4.62472 23.3753 4 22.6047 4ZM18.8837 10.9767C17.8562 10.9767 17.0233 10.1438 17.0233 9.11628C17.0233 8.08878 17.8562 7.25582 18.8837 7.25582C19.9112 7.25582 20.7442 8.08878 20.7442 9.11628C20.7442 9.60971 20.5482 10.0829 20.1993 10.4318C19.8504 10.7807 19.3771 10.9767 18.8837 10.9767Z" fill="#D3D4ED"/>
</svg>
